<?xml version="1.0" standalone="no"?>
<!DOCTYPE svg PUBLIC "-//W3C//DTD SVG 20010904//EN"
 "http://www.w3.org/TR/2001/REC-SVG-20010904/DTD/svg10.dtd">
<svg version="1.0" xmlns="http://www.w3.org/2000/svg"
 width="500.000000pt" height="500.000000pt" viewBox="0 0 500.000000 500.000000"
 preserveAspectRatio="xMidYMid meet">
<metadata>
Created by potrace 1.14, written by Peter Selinger 2001-2017
</metadata>
<g transform="translate(0.000000,500.000000) scale(0.100000,-0.100000)"
fill="#000000" stroke="none">
<path d="M775 4988 c-28 -16 -55 -48 -61 -72 -7 -31 1 -2987 9 -3016 3 -14 8
-41 11 -60 26 -217 112 -484 220 -684 67 -125 85 -153 163 -263 223 -311 543
-569 888 -716 131 -56 284 -106 375 -123 14 -2 31 -7 38 -9 7 -2 34 -7 60 -11
26 -3 49 -8 53 -9 20 -13 201 -20 491 -20 l338 0 32 33 33 32 0 171 0 171 -36
32 -35 33 187 0 c203 0 219 4 255 58 15 23 20 134 15 327 -1 17 -13 39 -31 56
-17 16 -30 31 -30 33 0 2 106 4 235 4 l235 1 33 32 32 32 3 159 c4 175 -3 204
-55 238 -24 16 -80 18 -742 19 -798 1 -794 1 -935 70 -215 106 -356 292 -401
529 -3 17 -6 519 -6 1117 0 598 -4 1101 -9 1118 -21 71 -53 83 -239 81 -143
-1 -158 -3 -188 -24 -18 -12 -34 -29 -37 -37 -2 -8 -4 54 -5 138 -2 241 -6
245 -231 248 -161 2 -213 -7 -226 -41 -16 -40 -22 -3 -22 128 -1 78 -5 155
-11 170 -6 15 -25 36 -43 47 -29 18 -50 20 -188 20 -97 -1 -162 -5 -175 -12z"/>
</g>
</svg>
